<?xml version="1.0" standalone="no"?>
<!DOCTYPE svg PUBLIC "-//W3C//DTD SVG 20010904//EN"
 "http://www.w3.org/TR/2001/REC-SVG-20010904/DTD/svg10.dtd">
<svg version="1.0" xmlns="http://www.w3.org/2000/svg"
 width="558.000000pt" height="558.000000pt" viewBox="0 0 558.000000 558.000000"
 preserveAspectRatio="xMidYMid meet">
<metadata>
Created by potrace 1.14, written by Peter Selinger 2001-2017
</metadata>
<g transform="translate(0.000000,558.000000) scale(0.100000,-0.100000)"
fill="#000000" stroke="none">
<path d="M2248 3744 c-2 -2 -18 -4 -36 -6 -18 -1 -32 -6 -32 -10 0 -4 -6 -8
-12 -8 -18 0 -55 -41 -69 -76 -15 -35 -14 -32 -23 -69 -5 -16 -16 -54 -27 -82
-10 -29 -21 -67 -24 -85 -3 -18 -11 -38 -17 -45 -6 -7 -8 -13 -5 -13 4 0 -1
-19 -9 -42 -9 -24 -17 -52 -20 -63 -2 -11 -8 -31 -13 -45 -5 -14 -19 -59 -31
-100 -12 -41 -31 -101 -42 -132 -18 -55 -23 -88 -20 -135 2 -24 71 -103 91
-103 14 0 6 -61 -15 -102 -8 -15 -16 -37 -18 -50 -3 -13 -5 -24 -7 -25 -1 -2
-2 -6 -4 -10 -1 -5 -5 -15 -8 -23 -33 -79 -55 -161 -47 -180 1 -3 3 -15 6 -28
6 -36 71 -90 126 -107 27 -8 55 -13 61 -12 7 1 12 -26 12 -84 2 -116 25 -161
102 -206 34 -19 116 -9 169 22 27 15 63 35 79 43 17 9 32 19 35 23 3 4 17 13
30 19 33 15 64 33 84 49 9 7 16 10 16 7 0 -4 15 4 33 18 19 14 37 23 40 19 4
-3 7 -1 7 6 0 7 4 10 9 7 5 -4 11 -3 13 2 4 9 126 82 139 82 5 0 9 3 9 8 0 4
15 13 33 21 17 8 34 17 37 20 8 9 82 51 113 64 15 6 27 15 27 20 0 4 5 5 10 2
6 -3 10 -2 10 3 0 5 24 22 53 37 72 37 92 49 109 63 8 6 18 9 21 5 4 -3 7 -1
7 5 0 7 5 12 11 12 6 0 23 8 37 19 15 10 47 29 72 43 84 47 117 66 185 107 37
23 71 41 75 41 15 0 80 75 80 92 0 9 4 19 9 22 9 6 5 71 -6 96 -3 8 -7 17 -7
20 -4 24 -57 69 -111 93 -16 8 -61 33 -100 57 -115 71 -376 220 -386 220 -5 0
-9 5 -9 10 0 6 -4 10 -10 10 -5 0 -71 37 -147 82 -76 45 -154 90 -173 100 -19
10 -53 29 -75 42 -22 13 -52 31 -67 39 -75 42 -214 122 -218 127 -3 3 -18 12
-35 20 -16 8 -32 18 -35 22 -3 4 -17 10 -30 12 -14 2 -25 5 -25 6 0 4 -34 8
-37 4z"/>
</g>
</svg>
